<?xml version="1.0" encoding="UTF-8" ?>
<!DOCTYPE svg PUBLIC "-//W3C//DTD SVG 1.1//EN" "http://www.w3.org/Graphics/SVG/1.1/DTD/svg11.dtd">
<svg width="490pt" height="290pt" viewBox="0 0 490 290" version="1.1" xmlns="http://www.w3.org/2000/svg">
<g id="#ffffffff">
<path fill="#ffffff" opacity="1.00" d=" M 364.99 40.59 C 384.06 27.40 402.90 13.87 422.10 0.88 C 426.02 -0.04 428.84 4.51 428.63 7.98 C 409.98 20.01 390.98 31.49 372.18 43.29 C 370.96 44.07 369.64 44.70 368.30 45.25 C 367.19 43.70 366.07 42.16 364.99 40.59 Z" />
<path fill="#ffffff" opacity="1.00" d=" M 0.00 75.31 C 16.17 75.70 32.36 75.47 48.54 75.43 C 43.00 78.15 40.00 84.06 39.93 90.09 C 38.83 105.39 37.88 120.73 38.00 136.08 C 38.00 169.39 38.00 202.69 38.00 236.00 C 38.31 249.34 38.96 262.67 40.12 275.96 C 40.49 281.40 43.45 286.88 48.80 288.81 C 32.55 289.07 16.30 289.32 0.04 289.24 C 4.65 286.80 8.08 282.32 8.46 277.02 C 9.92 262.05 10.47 247.00 10.76 231.97 C 10.74 201.98 10.75 171.99 10.75 142.00 C 10.85 124.27 10.11 106.53 8.61 88.86 C 8.28 83.30 5.23 77.92 0.00 75.60 L 0.00 75.31 Z" />
<path fill="#ffffff" opacity="1.00" d=" M 102.91 75.48 C 119.07 75.53 135.24 75.48 151.40 75.50 C 147.15 77.87 144.03 82.01 143.44 86.90 C 140.24 115.93 141.50 145.17 141.24 174.32 C 144.73 175.33 148.39 174.94 151.97 175.00 C 162.65 174.92 173.47 175.55 183.97 173.20 C 196.17 170.80 207.69 164.12 214.92 153.88 C 222.90 143.49 224.75 129.65 223.10 116.97 C 221.69 106.68 217.94 96.06 209.77 89.21 C 200.73 81.43 188.44 79.35 176.94 78.42 C 173.04 77.95 168.93 78.05 165.30 76.37 C 170.46 75.41 175.77 75.42 180.99 75.70 C 196.00 76.12 210.96 79.21 224.86 84.90 C 235.73 89.31 244.83 98.15 249.13 109.11 C 253.61 120.29 252.56 133.67 245.79 143.72 C 239.36 153.88 228.53 160.00 217.93 164.98 C 209.34 168.92 200.29 171.78 191.08 173.86 C 189.65 174.09 188.45 174.92 187.25 175.65 C 190.06 176.69 193.01 177.22 195.96 177.67 C 204.70 179.17 212.69 183.83 218.82 190.16 C 225.85 197.44 231.08 206.21 236.00 214.98 C 244.36 230.27 251.60 246.16 260.81 260.98 C 265.54 268.39 269.44 276.82 276.93 281.94 C 281.04 285.08 286.08 286.46 291.02 287.67 C 289.36 289.02 287.01 288.45 285.03 288.73 C 276.07 288.65 267.09 289.03 258.15 288.49 C 252.35 288.15 247.57 284.01 244.88 279.11 C 231.49 255.09 218.52 230.84 205.22 206.78 C 200.39 198.59 196.01 189.38 187.47 184.39 C 177.58 177.88 165.36 178.13 154.00 177.79 C 149.77 177.97 145.39 176.95 141.32 178.48 C 141.16 199.98 141.29 221.49 141.25 242.99 C 141.73 254.38 142.20 265.78 143.37 277.12 C 143.87 282.18 147.03 286.82 151.77 288.82 C 135.62 289.03 119.47 289.37 103.32 289.20 C 107.81 286.76 111.06 282.34 111.53 277.19 C 112.79 264.49 113.31 251.72 113.75 238.98 C 113.75 201.30 113.75 163.63 113.75 125.96 C 113.34 113.24 112.79 100.51 111.56 87.84 C 111.14 82.47 107.77 77.74 102.91 75.48 Z" />
<path fill="#ffffff" opacity="1.00" d=" M 313.68 75.33 C 342.45 75.72 371.22 75.39 400.00 75.50 C 423.00 75.67 446.00 74.97 469.01 75.32 C 472.57 75.35 475.37 78.39 475.72 81.83 C 477.85 96.92 480.02 112.00 482.21 127.08 C 482.98 132.99 484.39 138.87 483.94 144.86 C 483.35 144.94 482.17 145.10 481.57 145.18 C 480.13 142.29 479.61 139.08 479.11 135.93 C 477.53 126.35 474.64 116.85 469.39 108.61 C 460.77 95.30 446.82 85.02 430.91 82.78 C 409.05 80.36 387.01 81.31 365.07 80.84 C 362.81 81.02 360.34 82.17 359.66 84.51 C 357.85 90.83 357.63 97.46 357.75 104.00 C 357.38 126.35 357.52 148.71 357.11 171.07 C 356.90 173.88 358.87 176.90 362.00 176.50 C 376.72 175.95 391.51 176.05 406.18 174.47 C 415.46 173.52 424.76 168.71 429.22 160.22 C 433.51 152.47 433.07 143.35 433.00 134.79 C 433.72 134.70 435.18 134.52 435.91 134.43 C 436.65 136.88 437.24 139.40 437.02 141.98 C 436.43 155.29 435.68 168.59 435.48 181.91 C 435.73 192.26 436.06 202.62 436.51 212.97 C 436.64 215.64 436.33 218.31 435.82 220.93 C 435.29 220.85 434.23 220.69 433.71 220.61 C 433.00 210.89 433.08 199.80 425.75 192.35 C 417.83 184.93 406.81 181.20 396.06 180.99 C 385.35 181.13 374.68 182.23 363.98 182.56 C 360.86 182.56 357.25 184.50 357.11 187.96 C 356.55 194.65 357.27 201.38 356.98 208.09 C 356.45 216.06 357.04 224.04 356.53 232.01 C 356.23 246.06 357.32 260.09 358.31 274.09 C 358.44 277.94 359.78 281.65 362.13 284.70 C 380.06 285.46 398.03 285.72 415.98 285.75 C 430.68 285.72 445.57 281.28 457.04 271.89 C 471.38 260.66 480.88 243.86 483.96 225.98 C 485.28 219.84 485.21 213.52 486.46 207.37 C 487.06 207.31 488.25 207.18 488.85 207.12 C 489.48 210.31 490.11 213.59 489.52 216.84 C 486.44 239.23 483.38 261.63 480.03 283.98 C 479.89 286.68 478.01 289.50 474.99 289.21 C 422.88 289.59 370.79 288.28 318.68 288.48 C 323.29 285.91 326.70 281.37 327.03 275.99 C 329.05 254.07 329.39 232.04 329.25 210.04 C 329.13 180.03 329.53 150.01 328.98 120.00 C 328.57 110.04 328.00 100.08 327.22 90.14 C 326.85 85.49 325.40 80.43 321.32 77.69 C 319.17 75.85 316.16 76.38 313.68 75.33 Z" />
</g>
</svg>
