<svg width="490pt" height="290pt" viewBox="0 0 490 290" xmlns="http://www.w3.org/2000/svg">
	<g fill="#000101">
		<path d="M421.38 1.31c3.99-2.22 7.54 3.05 7.28 6.67-16.21 10.43-32.69 20.46-49.04 30.67-3.78 2.18-7.27 4.88-11.3 6.6a768.01 768.01 0 00-3.35-4.58c18.77-13.16 37.51-26.38 56.41-39.36zM0 75.29c16.16-.15 32.32.46 48.48.13a15.94 15.94 0 00-8.43 13.55 619.56 619.56 0 00-2.06 41.1c.02 35.32 0 70.64.02 105.97.29 13.35.95 26.69 2.11 39.99a15.48 15.48 0 008.54 13.03c-16.2-.3-32.38.39-48.58.2 2.17-1.54 4.51-3.01 6-5.28 1.92-2.93 2.4-6.5 2.73-9.91a617.8 617.8 0 001.94-49.99v-91.01c-.25-15.06-.83-30.14-2.27-45.13A14.84 14.84 0 000 75.65v-.36zM102.86 75.48c16.27.01 32.54.06 48.81-.03a15.26 15.26 0 00-8.39 12.44 587.72 587.72 0 00-2.03 34.08c.07 17.52-.14 35.04.11 52.55 8.52 1 17.13.25 25.68.48 16.72-.01 34.73-4.87 45.69-18.32 9.79-10.94 12.42-26.54 10.22-40.7-1.5-10.19-5.49-20.63-13.74-27.24-9.01-7.42-21.02-9.4-32.31-10.33-3.91-.42-7.98-.44-11.64-2.03 14.95-2 30.27-.13 44.83 3.55 9.43 2.68 19.18 5.7 26.74 12.21 9.27 7.77 15.38 19.64 14.96 31.87.12 12.6-7.24 24.35-17.32 31.52-10.65 7.6-22.89 12.75-35.43 16.32-3.97 1.22-8.21 1.63-11.9 3.64 4.69 2.03 9.95 1.92 14.71 3.7 8.95 3 16.38 9.38 22.02 16.8 11.18 14.7 18.54 31.75 27.21 47.94a477.96 477.96 0 0016.31 27.73c3.44 5.43 8.18 10.16 14.02 12.94 3.04 1.51 6.41 2.14 9.63 3.14-1.85 1.01-4 .88-6.03.99-7.02.05-14.05.01-21.08.02-3.95-.08-8.15-.03-11.7-2-3.56-1.93-6.1-5.25-7.99-8.76-11.91-21.53-23.65-43.16-35.43-64.76-3.69-6.6-7.29-13.28-11.54-19.54-4.88-7.15-12.68-11.97-21.01-14.02-7.29-1.81-14.87-1.51-22.31-1.86-4.2.01-8.47-.63-12.58.53-.28 17.53-.04 35.06-.12 52.59-.21 15.33.72 30.65 2.07 45.91.41 5.28 3.77 9.77 8.39 12.19-16.25-.24-32.48.42-48.72.22a15.06 15.06 0 008.57-12.3 576 576 0 002.19-38.96V137c.2-14.66-.68-29.3-1.68-43.91-.32-4.39-.59-9.1-3.25-12.81-1.42-2.21-3.8-3.45-5.96-4.8zM313.49 75.34c37.49.37 74.99.04 112.49.17 14.03-.46 28.08-.21 42.12-.23a7.07 7.07 0 017.47 5.83c2.33 15.67 4.48 31.37 6.8 47.04.77 5.53 1.97 11.05 1.59 16.66l-2.57.42a47.7 47.7 0 01-2.1-8.14c-1.51-9.72-4.27-19.39-9.49-27.8-8.79-14.06-23.58-24.82-40.29-26.7-21.45-2.12-43.03-1.35-64.54-1.72-2.21.16-4.63 1.33-5.28 3.61-1.84 6.32-2.06 12.96-1.94 19.5-.37 22.04-.23 44.09-.63 66.13-.03 2.05.16 4.56 2.08 5.77 2.12.94 4.51.59 6.77.59 14.03-.78 28.15-.35 42.1-2.28 9.12-1.31 17.96-6.74 21.83-15.33 3.61-7.48 3.12-15.97 3.1-24.05l2.88-.42c.76 2.47 1.33 5.03 1.14 7.63-.8 18.62-2.12 37.25-1.09 55.88 0 7.69 1.37 15.46-.11 23.08l-2.14-.43c-.67-8.45-.47-17.59-5.34-24.95-4.05-6.17-10.99-9.59-17.69-12.1-12.17-4.35-25.21-1.78-37.77-1.35-4.35.63-9.12-.5-13.14 1.6-3.01 1.58-2.8 5.41-2.89 8.31.49 11.3-.3 22.6-.1 33.91-.81 16.06.42 32.13 1.56 48.14a18.6 18.6 0 003.82 10.61c8.6.5 17.23.45 25.85.78 14.06-.19 28.29 1.41 42.23-1.18 14.72-2.74 27.94-11.31 37.41-22.77 9.41-10.99 14.88-24.91 16.94-39.13.83-5 .84-10.1 1.9-15.06l2.41-.23c.61 3.2 1.21 6.47.65 9.72-2.97 21.81-6.05 43.6-9.18 65.38-.48 2.42-.62 5.78-3.44 6.69-3.92.68-7.93.21-11.89.33-48.86.21-97.7-1.01-146.57-.73 4.77-2.42 8.23-7.07 8.58-12.49a595.2 595.2 0 002.24-49.06c-.17-35.65.32-71.31-.3-106.95-.37-9.96-.97-19.92-1.74-29.85-.38-4.4-1.6-9.15-5.25-11.99-2.3-2.18-5.63-1.96-8.48-2.84z"/>
	</g>
</svg>