<svg width="15" height="7" viewBox="0 0 15 7" fill="none" xmlns="http://www.w3.org/2000/svg">
<path d="M14.25 0.5H0.75C0.328125 0.5 0 0.851562 0 1.25V5.75C0 6.17188 0.328125 6.5 0.75 6.5H14.25C14.6484 6.5 15 6.17188 15 5.75V1.25C15 0.851562 14.6484 0.5 14.25 0.5ZM13.875 5.375H1.125V1.625H2.625V2.9375C2.625 3.05469 2.69531 3.125 2.8125 3.125H3.1875C3.28125 3.125 3.375 3.05469 3.375 2.9375V1.625H4.875V2.9375C4.875 3.05469 4.94531 3.125 5.0625 3.125H5.4375C5.53125 3.125 5.625 3.05469 5.625 2.9375V1.625H7.125V2.9375C7.125 3.05469 7.19531 3.125 7.3125 3.125H7.6875C7.78125 3.125 7.875 3.05469 7.875 2.9375V1.625H9.375V2.9375C9.375 3.05469 9.44531 3.125 9.5625 3.125H9.9375C10.0312 3.125 10.125 3.05469 10.125 2.9375V1.625H11.625V2.9375C11.625 3.05469 11.6953 3.125 11.8125 3.125H12.1875C12.2812 3.125 12.375 3.05469 12.375 2.9375V1.625H13.875V5.375Z" fill="#9F9F9F"/>
</svg>
