<?xml version="1.0" encoding="UTF-8" ?>
<!DOCTYPE svg PUBLIC "-//W3C//DTD SVG 1.1//EN" "http://www.w3.org/Graphics/SVG/1.1/DTD/svg11.dtd">
<svg width="223pt" height="128pt" viewBox="0 0 223 128" version="1.1" xmlns="http://www.w3.org/2000/svg">
<g id="#040707ff">
<path fill="#040707" opacity="1.00" d=" M 188.76 0.00 L 190.48 0.00 C 190.83 0.73 191.52 2.19 191.87 2.93 C 183.10 8.53 174.23 13.96 165.38 19.44 C 164.86 18.73 164.34 18.02 163.82 17.31 C 172.15 11.57 180.33 5.61 188.76 0.00 Z" />
<path fill="#040707" opacity="1.00" d=" M 4.47 32.47 C 11.26 32.62 18.05 32.62 24.84 32.48 C 23.11 34.25 21.58 36.36 21.60 38.95 C 20.05 56.27 21.02 73.67 20.75 91.03 C 20.75 100.99 20.56 110.99 21.76 120.89 C 21.89 123.05 23.55 124.56 24.89 126.07 C 18.10 125.91 11.31 126.10 4.53 126.24 C 6.09 124.46 7.79 122.56 7.83 120.05 C 9.45 103.41 8.54 86.66 8.78 69.97 C 8.74 59.29 9.02 48.55 7.70 37.93 C 7.58 35.66 5.89 34.05 4.47 32.47 Z" />
<path fill="#040707" opacity="1.00" d=" M 49.65 32.46 C 56.42 32.64 63.18 32.59 69.95 32.50 C 68.57 34.11 66.88 35.71 66.79 37.98 C 65.63 50.55 65.60 63.20 65.97 75.80 C 75.38 76.41 86.06 77.21 94.02 71.16 C 103.59 64.11 104.51 48.88 97.21 39.94 C 91.98 33.84 83.32 34.38 76.13 32.96 C 85.00 31.91 94.14 33.29 102.41 36.65 C 109.03 39.30 114.19 45.81 114.32 53.08 C 114.61 58.64 111.60 63.99 107.21 67.27 C 100.93 72.06 93.22 74.32 85.68 76.27 C 89.92 77.36 94.51 78.12 97.94 81.07 C 103.21 85.43 106.35 91.68 109.53 97.59 C 113.42 105.24 117.32 112.95 122.25 120.00 C 124.48 123.20 128.26 124.54 131.76 125.84 C 126.60 125.80 121.40 126.24 116.26 125.65 C 113.17 125.19 111.57 122.20 110.17 119.74 C 104.78 109.82 99.30 99.94 93.87 90.04 C 91.67 86.15 89.42 81.87 85.26 79.76 C 79.38 76.68 72.52 77.64 66.14 77.34 C 65.50 91.50 65.60 105.73 66.68 119.87 C 66.69 122.38 68.31 124.35 69.95 126.07 C 63.20 125.91 56.45 126.10 49.70 126.24 C 50.96 124.71 52.67 123.27 52.79 121.13 C 53.81 112.47 53.91 103.71 53.88 95.00 C 53.60 76.32 54.58 57.59 52.98 38.95 C 53.05 36.30 51.40 34.25 49.65 32.46 Z" />
<path fill="#040707" opacity="1.00" d=" M 143.26 32.44 C 164.15 32.73 185.04 32.53 205.93 32.44 C 207.67 32.48 209.45 32.44 211.16 32.89 C 212.94 35.59 212.75 39.00 213.33 42.08 C 214.07 49.33 215.89 56.48 215.92 63.79 C 213.57 61.03 213.69 57.23 212.64 53.93 C 209.86 43.95 200.56 35.92 190.08 35.46 C 180.61 34.98 171.09 34.64 161.63 35.36 C 160.11 42.83 160.71 50.48 160.56 58.05 C 160.67 64.07 160.14 70.11 160.64 76.12 C 161.00 76.26 161.72 76.53 162.08 76.67 C 168.39 76.90 174.74 76.50 181.04 76.00 C 185.10 75.73 189.27 73.96 191.50 70.41 C 193.98 66.64 193.37 61.91 194.05 57.65 C 194.99 59.25 195.58 61.07 195.36 62.95 C 195.09 69.27 194.52 75.60 194.73 81.94 C 194.70 86.94 195.73 92.00 194.53 96.94 C 193.29 92.50 193.84 87.15 190.32 83.65 C 186.00 79.62 179.76 78.31 174.00 78.83 C 169.96 79.26 165.84 79.06 161.86 79.84 C 160.05 80.42 160.50 82.48 160.35 83.94 C 160.42 95.67 159.77 107.43 160.87 119.13 C 161.08 120.92 161.79 122.59 162.42 124.26 C 171.49 124.19 180.57 125.04 189.62 124.39 C 199.35 123.57 208.01 117.10 212.50 108.58 C 215.89 102.72 216.05 95.85 217.51 89.42 C 219.41 93.77 217.60 98.46 217.23 102.93 C 215.97 110.50 215.47 118.21 213.68 125.66 C 210.16 126.49 206.53 126.05 202.96 126.13 C 183.27 126.21 163.58 125.53 143.90 125.96 C 145.45 124.26 147.23 122.49 147.25 120.03 C 148.78 102.74 148.05 85.36 148.22 68.03 C 148.31 58.05 148.11 48.06 147.20 38.11 C 147.08 35.58 145.10 33.90 143.26 32.44 Z" />
</g>
</svg>
