<svg width="9" height="13" viewBox="0 0 9 13" fill="none" xmlns="http://www.w3.org/2000/svg">
<path d="M4.5 2.75C3.25781 2.75 2.25 3.78125 2.25 5C2.25 6.24219 3.25781 7.25 4.5 7.25C5.71875 7.25 6.75 6.24219 6.75 5C6.75 3.78125 5.71875 2.75 4.5 2.75ZM4.5 6.5C3.65625 6.5 3 5.84375 3 5C3 4.17969 3.65625 3.5 4.5 3.5C5.32031 3.5 6 4.17969 6 5C6 5.84375 5.32031 6.5 4.5 6.5ZM4.5 0.5C1.99219 0.5 0 2.51562 0 5C0 6.82812 0.609375 7.34375 4.03125 12.2656C4.24219 12.5938 4.73438 12.5938 4.94531 12.2656C8.36719 7.34375 9 6.82812 9 5C9 2.51562 6.98438 0.5 4.5 0.5ZM4.5 11.6094C1.21875 6.89844 0.75 6.52344 0.75 5C0.75 4.01562 1.125 3.07812 1.82812 2.35156C2.55469 1.64844 3.49219 1.25 4.5 1.25C5.48438 1.25 6.42188 1.64844 7.14844 2.35156C7.85156 3.07812 8.25 4.01562 8.25 5C8.25 6.52344 7.75781 6.89844 4.5 11.6094Z" fill="#F8F8F8"/>
</svg>
