<svg width="13" height="13" viewBox="0 0 13 13" fill="none" xmlns="http://www.w3.org/2000/svg">
<path d="M11.9141 1.08594L9.57031 0.523438C9.21875 0.453125 8.86719 0.617188 8.72656 0.945312L7.625 3.5C7.50781 3.80469 7.57812 4.15625 7.83594 4.34375L9.10156 5.375C8.30469 7.01562 6.99219 8.32812 5.35156 9.125L4.32031 7.85938C4.13281 7.60156 3.78125 7.53125 3.47656 7.64844L0.921875 8.75C0.617188 8.89062 0.429688 9.24219 0.5 9.57031L1.0625 11.9375C1.13281 12.2656 1.41406 12.5 1.76562 12.5C7.67188 12.5 12.5 7.71875 12.5 1.78906C12.5 1.4375 12.2656 1.15625 11.9141 1.08594ZM1.78906 11.75L1.25 9.42969L3.75781 8.35156L5.16406 10.0625C7.57812 8.91406 8.89062 7.60156 10.0391 5.1875L8.32812 3.78125L9.40625 1.27344L11.7266 1.8125C11.7266 7.29688 7.27344 11.75 1.78906 11.75Z" fill="#F8F8F8"/>
</svg>
